<?xml version="1.0" encoding="utf-8"?>
<!-- Generator: Adobe Illustrator 23.0.5, SVG Export Plug-In . SVG Version: 6.00 Build 0)  -->
<svg version="1.1" id="Layer_1" xmlns="http://www.w3.org/2000/svg" xmlns:xlink="http://www.w3.org/1999/xlink" x="0px" y="0px"
	 viewBox="0 0 396 60" style="enable-background:new 0 0 396 60;" xml:space="preserve">
<style type="text/css">
	.st0{opacity:0.88;}
	.st1{fill:#FFFFFF;}
</style>
<g class="st0">
	<path class="st1" d="M112,43.5c-0.2,0.7-0.5,1.4-0.7,2c-1.9,0-3.7,0-5.7,0c0-11.5,0-22.9,0-34.4c2.6,0,5,0,7.5,0c0,4.1,0,8,0,12.1
		c0.2-0.1,0.4-0.2,0.5-0.3c3.5-3.4,10.9-2.1,13.2,3.2c2.1,4.9,2,10-0.2,14.8c-2.8,6.1-10.9,6.8-14.2,2.7
		C112.3,43.6,112.2,43.6,112,43.5z M112.7,33.5c0.2,1.7,0.4,3.2,0.7,4.7c0.3,1.4,1.2,2.6,2.9,2.7c1.7,0.1,3.1-0.5,3.8-2.2
		c1.4-3.5,1.3-7.2-0.4-10.6c-0.6-1.3-1.8-1.9-3.3-1.8c-1.5,0.1-2.3,1-2.7,2.2C113.3,30.2,113,31.9,112.7,33.5z"/>
	<path class="st1" d="M180,45.9c-2.3,0-4.7,0-6.9,0c-0.4,0-0.9-0.5-1.2-0.9c-2.1-3.1-4.3-6.2-6.9-9.5c-0.2,0.7-0.7,1.6-0.7,2.3
		c-0.1,2.6,0,5,0,7.7c-2.5,0-4.7,0-7.2,0c0-11.4,0-22.8,0-34.4c2.6,0,5,0,7.4,0c0,5.8,0,11.4,0,17.4c1.1-1.1,2-2,3-3
		c1.3-1.3,2.3-3.1,3.9-3.7c1.5-0.6,3.5-0.1,5.3-0.1c0.7,0,1.5,0,2.7,0c-3.2,3.2-6.2,6.3-9.2,9.3c3.4,4.8,6.7,9.6,10,14.4
		C180.1,45.5,180.1,45.6,180,45.9z"/>
	<path class="st1" d="M79,33.6c0-6.1,4.1-11.4,9.5-12.4c6.8-1.2,13.2,3.8,13.9,10.9c0.4,5.4-1.2,9.9-6.1,12.7
		C88.8,49.1,79.5,43.7,79,35C79,34.5,79,34,79,33.6z M95.7,33.5c-0.5-1.6-0.7-3.3-1.5-4.7c-1.4-2.7-4.6-2.9-6.4-0.7
		c-2.2,2.6-2.2,8.6,0.1,11.1c1.6,1.7,3.9,1.7,5.6,0.1C94.9,37.7,95.3,35.7,95.7,33.5z"/>
	<path class="st1" d="M141.7,27.1c-2.7,0-5.2,0-7.9,0c0-1.9,0-3.6,0-5.6c5.1,0,10.1,0,15.3,0c0,0.3,0.1,0.5,0.1,0.9
		c0,7.2,0,14.3,0,21.3c0,3.2-0.7,6.1-3.2,8.4c-3.3,3.1-10.8,3.9-15.4-1.4c1.4-1.8,2.8-3.6,4.2-5.6c0.2,0.4,0.4,0.6,0.5,0.9
		c0.4,2.1,2.5,3,4.5,2.6c0.6-0.1,1.3-0.9,1.6-1.5c0.3-0.7,0.4-1.6,0.4-2.5c0-5.6,0-11.2,0-16.8C141.8,27.7,141.7,27.5,141.7,27.1z"
		/>
	<path class="st1" d="M187.6,27.1c-1.6,0-3,0-4.6,0c0-1.9,0-3.6,0-5.6c1.6,0,3.2,0,4.9,0c0.1-1.9,0.1-3.6,0.2-5.4
		c2.7-0.3,5.1-0.6,7.7-1c-0.3,2.1-0.5,4.1-0.9,6.3c2.5,0,4.8,0,7.3,0c0,1.9,0,3.7,0,5.7c-2.5,0-4.8,0-7.5,0c0,3.6-0.2,7,0.1,10.6
		c0.2,2.6,1.8,3.4,4.3,2.7c1.2-0.3,2.2-1.1,3.6-1.6c0.3,1.4,0.7,2.9,1.1,4.4c0,0.2-0.1,0.5-0.3,0.7c-3.4,2.7-8.9,3.4-12.2,1.5
		c-2.3-1.4-3.4-3.5-3.6-6.1c-0.2-3.4-0.1-6.8-0.1-10.2C187.6,28.3,187.6,27.8,187.6,27.1z"/>
	<path class="st1" d="M264.8,45.5c-1.5,0-2.8,0-4.2,0c0-5.6,0-11.1,0-16.9c1.4,0.1,2.9,0.1,4.8,0.2c1.6-1.1,3-1,4.5,0.9
		c0.9-0.4,1.7-1.1,2.6-1.3c2.5-0.4,4.1,0.6,4.3,3.2c0.2,2.2,0.1,4.5,0.2,6.7c0,2.3,0,4.7,0,7.2c-1.4,0-2.8,0-4.3,0
		c0-3.3,0-6.6,0-9.8c0-1,0-1.9-0.1-2.8c0-0.3-0.3-0.7-0.4-0.7c-0.3,0-0.9,0.2-0.9,0.4c-0.3,1.1-0.5,2.1-0.5,3.1
		c-0.1,3.2,0,6.5,0,9.8c-1.3,0-2.5,0-3.8,0c0-1.2,0-2.3,0-3.6c0-3,0-5.9-0.1-8.9c0-0.4-0.4-0.9-0.6-1.2c-0.3,0.3-0.9,0.6-1,1.1
		c-0.2,0.9-0.3,1.7-0.3,2.5C264.8,38.7,264.8,42.1,264.8,45.5z"/>
	<path class="st1" d="M259,37.3c-0.1,6.3-5.9,10.4-11.4,8.1c-3.8-1.6-6-6.3-4.7-10.8c1.2-4.3,5-6.9,9.3-6.2
		C256,29.1,259.1,33,259,37.3z M247.3,37.3c0.3,1.2,0.5,2.3,1.1,3.3c1.1,1.9,3.5,1.9,4.7,0.1c1.2-1.7,1.2-5.2,0-6.9
		c-1.3-1.8-3.6-1.9-4.7,0.1C247.8,34.9,247.6,36.1,247.3,37.3z"/>
	<path class="st1" d="M237.8,35.2c-0.3-2-1.5-2.7-3-2.8c-1.8-0.1-3.2,0.4-4.1,2.1c-0.9,1.6-1,3.3-0.3,5c0.9,2.5,3.5,3.3,6,2
		c0.6-0.3,1.2-0.9,1.9-1.4c0.7,0.9,1.6,1.9,2.5,2.8c-1.1,2.5-6.3,3.6-9.7,2.7c-3.6-1.1-6.1-4.3-6.1-8.2s2.6-7.6,6.2-8.6
		c3.7-1.2,7.8,0,9.7,3C239.9,32.7,238.9,33.9,237.8,35.2z"/>
	<path class="st1" d="M140.6,14.1c0-2.3,1.7-3.9,4.2-3.9c2.3,0,4.4,1.8,4.4,4.1c0,2.1-2,4.1-4.3,4.1
		C142.5,18.3,140.6,16.4,140.6,14.1z"/>
	<path class="st1" d="M214.6,39.9c1.7,0,3.1,1.4,3,3.2c0,1.7-1.5,3.1-3.2,3.1s-3.1-1.5-3.1-3.2C211.4,41.2,212.9,39.8,214.6,39.9z"
		/>
</g>
</svg>
