<?xml version="1.0" encoding="utf-8"?>
<!-- Generator: Adobe Illustrator 23.0.5, SVG Export Plug-In . SVG Version: 6.00 Build 0)  -->
<svg version="1.1" id="Layer_1" xmlns="http://www.w3.org/2000/svg" xmlns:xlink="http://www.w3.org/1999/xlink" x="0px" y="0px"
	 viewBox="0 0 2500 870" style="enable-background:new 0 0 2500 870;" xml:space="preserve">
<style type="text/css">
	.st0{display:none;opacity:0.54;}
	.st1{display:inline;fill:#0C0A07;}
	.st2{display:none;opacity:0.88;}
	.st3{display:inline;fill:#FFFFFF;}
	.st4{opacity:0.94;fill:#FFFFFF;enable-background:new    ;}
</style>
<g class="st0">
	<path class="st1" d="M39.5,429.5c23.3,22.6,46.4,45.2,69.7,67.5c5.2,5,1.9,9.6,0.8,14.8c-3.6,16.2,5.4,30,20.4,32.3
		c16.5,2.5,29.7-7,31.1-22.5c1.4-15.7-10.7-29.4-27.8-28.4c-9.3,0.5-14.4-3.1-20.1-8.8c-20-20.1-40.2-39.9-60.5-59.7
		c-7.2-7-8.5-13.9-5.1-24.2c8.3-25.4,24.4-47,32.8-72.3c2.2-6.5,7.2-6.7,12.4-1.3c17.8,18.3,34,38.3,54.2,54.2
		c6.1,4.8,4.1,10.3,3.1,16.4c-3.2,18.4,5.4,30.7,22.1,32.5c14.9,1.6,28.9-10.8,29.1-25.6c0.2-14.4-14.1-27.6-30.4-25.9
		c-8.7,0.9-13.4-2.4-18.6-7.8c-15.1-15.7-29.9-31.8-46.1-46.2c-10.6-9.5-11.9-17-3.8-28.9c31.7-46.2,63.6-92.1,98.8-135.7
		c19.9-24.6,40.5-48.7,60.4-73.4c7.7-9.6,13.9-11.2,22.5-0.6c24.3,29.8,49.3,59,74,88.4c6.6,7.8,7,14.2-1.6,21.4
		c-9.6,8.1-17.9,17.9-27,26.6c-8.5,8.2-15.6,16.3-30.9,12.6c-13.6-3.4-25,9.8-25.7,24.3c-0.7,14.3,9.2,26.3,23,27.9
		c13.6,1.6,29.8-8.7,27.9-21.7c-3.6-24,13.4-34.2,26.3-47.3c22.8-23.1,23.2-22.9,43,3.3c11.2,14.9,21.8,30.3,33.1,45.1
		c6.1,8.1,5.8,14.2-1.6,21.8c-14.5,14.8-30.5,28.1-43,44.9c-6.9,9.2-14,16-28.6,11.1c-13.2-4.4-26.2,8-27.5,21.8
		c-1.6,16.3,7.3,28.1,21.6,28.7c17.9,0.8,29.3-7.9,28.6-24.4c-0.5-11.7,4-18.7,11.8-26.3c14.7-14.2,28.2-29.6,41.8-44.9
		c7.2-8.2,12.7-9.7,18.8,1.1c10.9,19.4,22.3,38.6,33.5,57.9c3.7,6.3,4.5,11.5-1.8,17.5c-23.1,22.1-45.7,44.8-68.3,67.5
		c-5.9,5.9-11.4,8.8-20.7,7.3c-16.9-2.7-31.8,8.8-32.8,23.1c-0.9,13.5,14.1,29.2,28.2,29.5c15.2,0.3,27-12.8,25.4-30.8
		c-0.8-8.9,1.7-14.6,7.8-20.5c19.9-19.2,39.9-38.3,58.5-58.8c11.7-12.9,15.8-8.7,21.2,4.7c24.5,60.3,16.1,118.7-10.2,175.5
		C449.1,659.8,377.2,712.4,294,752.4c-8.3,4-13.7,3.9-13.7-7.7c0.2-46,0.1-91.9-0.1-137.9c0-7.7,3.9-11.3,9.7-15.6
		c13.6-10.3,14.4-28.1,3-39.6c-10.7-10.8-28.7-10.3-38.7,1.1c-10.6,12.2-9,29.6,5.5,39.3c6.7,4.5,8.4,8.8,8.4,16
		c-0.2,44.8-0.2,89.5,0.1,134.3c0.1,11.6-2.8,16-14.5,10.3c-64.1-31.1-122.8-69.3-165.4-128C51.4,573.1,31,516.2,35.6,451.8
		C36.1,444.2,34.9,436,39.5,429.5z"/>
	<path class="st1" d="M1789.5,456.9c24.4-32.7,54.1-49.2,94.7-39.7c25.3,5.9,38.8,22.6,45.3,46.4c9.3,33.8,5.2,68.5,5.9,102.8
		c0.3,16.9,0.5,33.9-0.1,50.8c-0.6,18.7-9.9,27.8-26.5,27.5c-15.8-0.3-24.2-9-24.4-27.3c-0.6-37.5-0.1-75-1-112.4
		c-0.5-18.2-5.5-35.2-26-41.1c-21.5-6.2-44.5,2.2-55.8,20c-6.4,10.1-7.5,21.5-7.5,33.1c0,32,0.2,64.1-0.1,96.1
		c-0.2,22.5-8,31.7-25.8,31.5c-17.5-0.2-25.1-9.6-25.3-32c-0.3-35.7,0.2-71.3-0.7-107c-0.7-29.2-14.3-43.3-39.6-43.4
		c-28-0.2-48.2,17.6-48.7,44.8c-0.7,35.7-0.3,71.3-0.3,107c0,14.5-4.7,26.4-20.3,30.1c-18.7,4.4-31.5-6.8-31.6-28.8
		c-0.4-55.6,0-111.2,0.1-166.9c0-1.2,0-2.4,0.1-3.6c0.6-12.8,5.9-22.3,19.2-24.8c12.2-2.3,23.7,0.1,28.8,12.9c4.8,12,9,9.9,17.4,2.9
		c30.7-25.8,77-28.5,101.2-6C1776,436.9,1781.6,446.6,1789.5,456.9z"/>
	<path class="st1" d="M753.4,487.1c36.4-37.7,73.4-76.1,110.5-114.3c6.3-6.4,13-12.5,19.9-18.2c11.4-9.4,23.8-10.5,33.8,0.9
		c10.1,11.4,9.9,24.1-1.7,35.3c-24.8,23.9-48.8,48.6-74.6,71.2c-13.2,11.5-12.6,19.3-2.3,32.2c26.6,33.5,51.9,68,77.3,102.5
		c12.1,16.4,11.2,32.2-1,41.7c-14.1,11.1-30.2,7.7-43.3-9.5c-25.2-33.1-50.5-66.1-75.2-99.5c-8.1-10.9-13.2-10.2-24.2-1.7
		c-20.6,16-30,34.5-26.1,60.4c1.4,9.5,0.6,19.3,0.2,29c-0.8,18.7-9.2,27.1-26.5,27.4c-17,0.3-26.6-8.5-26.7-26.9
		c-0.4-80.4-0.4-160.7-0.1-241.1c0.1-17,11.8-27.5,27.5-27.2c15.7,0.4,25.6,10.9,25.8,28.7c0.3,32,0,64,0.2,96.1
		C746.8,477.4,745.2,481.5,753.4,487.1z"/>
	<path class="st1" d="M1547.1,530.8c0,29-0.4,58,0.2,87c0.3,12.7-4.9,21.6-16.1,25.5c-11.6,4-23,2-30.1-9.6c-4.4-7.1-8-7.9-15.6-3.4
		c-66,38.8-134.9,11.5-153.9-61.9c-7.4-28.3-7.3-57.5,3.8-85.5c25.1-62.8,87.4-85.6,146.3-53.1c9.1,5,14.3,6.6,19.7-3.6
		c6.1-11.4,17-13.3,28.2-10.2c11.5,3.2,17.8,11.6,17.8,24.2c-0.2,30.2-0.1,60.4-0.1,90.6C1547.2,530.7,1547.1,530.8,1547.1,530.8z
		 M1436.7,601.6c35.4,0.3,61.8-28.7,61.9-68.1c0.1-41.7-24.9-71-60.6-71c-36.4-0.1-61.9,28.6-62,69.8
		C1375.9,572.2,1401.4,601.3,1436.7,601.6z"/>
	<path class="st1" d="M1171.8,530c0,29-0.3,58,0.2,87c0.2,13.4-5.6,22.5-17.6,26.4c-11.8,3.8-23.1,1.6-29.3-10.8
		c-3.7-7.3-6.7-7.2-13.8-3.1c-70.7,41.5-140,10.4-157.1-70.1c-11.6-54.8,9.8-108.4,54.3-132.7c33.6-18.4,67.2-15.7,99.5,4.1
		c7.9,4.8,12.5,7.5,17.6-3.8c5-10.9,16.1-13.9,27.8-10.9c11.8,3.1,18.5,10.7,18.4,23.5C1171.7,469.6,1171.8,499.8,1171.8,530z
		 M1000.9,531.5c0.1,38.2,23.1,67.9,54.2,70.1c32,2.3,55.4-14.3,64.8-45.8c10.1-33.9-2.6-71.5-28.9-85.9
		C1047.5,446,1000.7,478.1,1000.9,531.5z"/>
	<path class="st1" d="M2088.1,531.6c0-27.8-0.1-55.6,0.1-83.4c0.1-13.8,4.4-25.3,19.7-28.3c14.3-2.8,25.1,2.3,30.4,16.3
		c5.3,13.7,10.9,4.1,15.5,0.1c23.7-21,50.9-25.8,80.8-18.4c23.2,5.7,37.3,20.7,43.8,43.5c5,17.6,7.3,35.4,7.1,53.7
		c-0.3,31.4,0,62.9-0.1,94.3c0,24.5-8.3,35.5-26.2,35.3c-18.9-0.2-25.2-9.1-25.2-35.6c0-28.4,0.2-56.8,0.2-85.2
		c0-6.6-0.1-13.3-0.8-19.9c-3.1-30.1-16.8-42.4-45.8-41.4c-26.7,0.9-46.5,19.1-47.1,44.9c-0.8,33.2-0.3,66.5-0.5,99.7
		c0,6,0.1,12.2-1.4,18c-3.4,13.3-11.9,20.5-26.3,19.6c-14.3-0.9-23.2-8.3-23.5-22.4c-0.8-30.2-0.2-60.4-0.2-90.6
		C2088.5,531.6,2088.3,531.6,2088.1,531.6z"/>
	<path class="st1" d="M2419.1,644.6c-39-0.3-58.2-19.4-58.6-57.1c-0.3-33.8-0.5-67.7,0-101.5c0.2-11.1-2-16.3-14.8-16.1
		c-18.9,0.4-28-7.9-27.8-23.2c0.3-16.8,11-23.7,26.3-23c14.7,0.6,17.4-6.9,16.2-19.1c-0.9-9.3,0.1-18.6,6.8-25.5
		c7-7.4,16.3-10.7,26.4-7.5c9.9,3.1,16.6,9.7,17.6,20.7c0.4,4.2,0.9,8.5,0.4,12.6c-1.5,13.7,3.2,20.6,18.1,18.6
		c5.3-0.7,11-0.5,16.2,0.6c12.6,2.7,20.8,10.6,20,23.8c-0.8,12.9-9.2,20.2-22.2,22.1c-9.9,1.4-22.9-4.8-29.2,3.7
		c-6.7,9-2.5,22.2-2.7,33.6c-0.3,22.9-0.3,45.9,0.2,68.9c0.5,20.8,7.2,26.1,26.9,21.5c10-2.3,18.1-1.2,22.4,9.1
		c4.8,11.5,2.4,21.8-7.9,28.7C2442.7,643,2430.5,646.3,2419.1,644.6z"/>
	<path class="st1" d="M1230.2,490.7c0-42.3,0-84.6,0-126.9c0-10.7,1.9-20.3,11.8-26.7c15-9.7,34.4-2.4,38.3,15.1
		c1.4,6.4,1.7,13.2,1.7,19.8c-0.1,80.4-0.3,160.7-0.8,241.1c-0.1,22.6-8,31.5-25.9,31.4c-17.1-0.1-24.8-9.8-24.9-32.3
		c-0.2-40.5,0-81,0-121.5C1230.3,490.7,1230.2,490.7,1230.2,490.7z"/>
	<path class="st1" d="M2037.5,532.5c0,27.7,0.2,55.5-0.1,83.2c-0.2,18.5-9.1,28.6-24.7,28.9c-17.1,0.3-26.5-9.4-26.6-29
		c-0.2-55.5-0.1-110.9,0.3-166.4c0.1-20,9-29.9,25.3-30c16-0.1,25.4,10.8,25.6,30.1C2037.5,477,2037.4,504.8,2037.5,532.5
		C2037.4,532.5,2037.5,532.5,2037.5,532.5z"/>
	<path class="st1" d="M2009.9,392c-20,0-25.4-5-25.4-23.9c0-20.1,6.7-26.6,27.4-26.7c21.1-0.1,26.9,5.7,26.7,26.6
		C2038.5,388.3,2034,392,2009.9,392z"/>
	<path class="st1" d="M300,274.9c-10,0.4-14.6-5.6-14.7-14.5c0-7.7,3.8-14.2,12.8-14.6c9.4-0.4,15.2,4.7,15.7,13.8
		C314.4,268.6,309.8,274.5,300,274.9z"/>
	<path class="st1" d="M351.8,354.6c9.4,0.7,14.9,6,14.5,15.1c-0.4,8.7-5.5,14.6-15.2,14.2c-8.8-0.4-13.3-6.4-13.5-14.1
		C337.3,361,342.2,355.1,351.8,354.6z"/>
	<path class="st1" d="M386.7,491.5c-8.5-1.6-14.5-6.4-14.1-15.6c0.3-7.8,4.4-14.2,13.3-14.2c8.9-0.1,15.7,4.4,15.4,13.8
		C401,484,395.9,489.9,386.7,491.5z"/>
	<path class="st1" d="M149.8,519.1c-1.3,9.3-6.2,14.6-15.4,14.4c-9.8-0.2-13.5-7.1-13.5-15.6c0-8.7,6.2-12.6,14.1-12.9
		C144.7,504.5,148.5,510.9,149.8,519.1z"/>
	<path class="st1" d="M290,569.2c-1.2,9.7-6.3,15.8-14.9,15.8c-8.3,0-14.7-4.9-14.9-14.4c-0.2-9.4,4.9-14.3,14.2-14.5
		C283.8,555.9,288.2,561.5,290,569.2z"/>
	<path class="st1" d="M172.4,390.2c12.2-0.3,17,5,17,14.3c0,8.3-4.6,13.9-13,14.4c-9.3,0.6-14.9-5.2-15.7-13.9
		C159.7,395.5,165.7,391,172.4,390.2z"/>
</g>
<g class="st2">
	<path class="st3" d="M483,573c-2.5,8.7-6.2,16.1-8.7,23.5c-22.3,0-43.4,0-65.7,0c0-133.8,0-266.4,0-398.9c29.7,0,58.2,0,86.7,0
		c0,47.1,0,92.9,0,140c2.5-1.2,5-2.5,6.2-3.7c40.9-39.6,126.4-24.8,153.6,37.2c24.8,57,23.5,116.5-2.5,172.2
		c-32.2,70.6-126.4,79.3-164.8,31C486.7,574.3,485.5,574.3,483,573z M491.7,456.6c2.5,19.8,5,37.2,8.7,54.5
		c3.7,16.1,13.6,29.7,33.4,31c19.8,1.2,35.9-6.2,44.6-26c16.1-40.9,14.9-83-5-122.6c-7.4-14.9-21.1-22.3-38.4-21.1
		c-17.3,1.2-27.3,11.1-31,26C497.8,418.2,495.4,438,491.7,456.6z"/>
	<path class="st3" d="M1272.1,600.3c-27.3,0-54.5,0-80.5,0c-5,0-9.9-6.2-13.6-9.9c-24.8-35.9-49.6-71.9-80.5-110.3
		c-2.5,8.7-8.7,18.6-8.7,27.3c-1.2,29.7,0,58.2,0,89.2c-28.5,0-54.5,0-83,0c0-132.6,0-265.1,0-398.9c29.7,0,58.2,0,85.5,0
		c0,66.9,0,132.6,0,201.9c12.4-12.4,23.5-23.5,34.7-34.7c14.9-14.9,27.3-35.9,45.8-43.4c17.3-7.4,40.9-1.2,61.9-1.2
		c8.7,0,17.3,0,31,0c-37.2,37.2-71.9,73.1-106.5,107.8c39.6,55.7,78,111.5,116.5,167.2C1273.4,596.6,1273.4,597.8,1272.1,600.3z"/>
	<path class="st3" d="M100.2,457.8c0-70.6,47.1-132.6,110.3-143.7c79.3-13.6,153.6,44.6,161,126.4c5,63.2-13.6,115.2-70.6,147.4
		c-86.7,49.6-194.5-12.4-200.7-114C100.2,469,100.2,462.8,100.2,457.8z M293.4,456.6c-6.2-18.6-8.7-38.4-17.3-54.5
		c-16.1-31-53.3-33.4-74.3-8.7c-26,29.7-26,100.3,1.2,128.8c18.6,19.8,45.8,19.8,64.4,1.2C284.8,506.1,289.7,482.6,293.4,456.6z"/>
	<path class="st3" d="M827.4,382.2c-31,0-60.7,0-91.7,0c0-22.3,0-42.1,0-64.4c59.5,0,117.7,0,177.2,0c0,3.7,1.2,6.2,1.2,9.9
		c0,83,0,166,0,247.8c0,37.2-8.7,70.6-37.2,97.9c-38.4,35.9-125.1,45.8-178.4-16.1c16.1-21.1,32.2-42.1,48.3-64.4
		c2.5,5,5,7.4,6.2,9.9c5,24.8,28.5,34.7,52,29.7c7.4-1.2,14.9-9.9,18.6-17.3c3.7-8.7,5-18.6,5-28.5c0-64.4,0-130.1,0-194.5
		C828.6,389.7,827.4,387.2,827.4,382.2z"/>
	<path class="st3" d="M1360.1,382.2c-18.6,0-34.7,0-53.3,0c0-22.3,0-42.1,0-64.4c18.6,0,37.2,0,57,0c1.2-22.3,1.2-42.1,2.5-63.2
		c31-3.7,59.5-7.4,89.2-11.1c-3.7,24.8-6.2,47.1-9.9,73.1c28.5,0,55.7,0,84.2,0c0,22.3,0,43.4,0,65.7c-28.5,0-55.7,0-86.7,0
		c0,42.1-2.5,81.8,1.2,122.6c2.5,29.7,21.1,39.6,49.6,31c13.6-3.7,26-12.4,42.1-18.6c3.7,16.1,8.7,33.4,12.4,50.8
		c0,2.5-1.2,6.2-3.7,8.7c-39.6,31-102.8,39.6-141.2,17.3c-27.3-16.1-39.6-40.9-42.1-70.6c-2.5-39.6-1.2-79.3-1.2-118.9
		C1360.1,397.1,1360.1,390.9,1360.1,382.2z"/>
	<path class="st3" d="M2257,596.6c-17.3,0-32.2,0-48.3,0c0-64.4,0-128.8,0-195.7c16.1,1.2,33.4,1.2,55.7,2.5
		c18.6-12.4,34.7-11.1,52,9.9c9.9-5,19.8-12.4,29.7-14.9c28.5-5,47.1,7.4,49.6,37.2c2.5,26,1.2,52,2.5,78c0,27.3,0,54.5,0,83
		c-16.1,0-32.2,0-49.6,0c0-38.4,0-76.8,0-114c0-11.1,0-22.3-1.2-32.2c0-3.7-3.7-8.7-5-8.7c-3.7,0-9.9,2.5-9.9,5
		c-3.7,12.4-6.2,24.8-6.2,35.9c-1.2,37.2,0,75.6,0,114c-14.9,0-28.5,0-44.6,0c0-13.6,0-27.3,0-42.1c0-34.7,0-68.1-1.2-102.8
		c0-5-5-9.9-7.4-13.6c-3.7,3.7-9.9,7.4-11.1,12.4c-2.5,9.9-3.7,19.8-3.7,28.5C2257,517.3,2257,556.9,2257,596.6z"/>
	<path class="st3" d="M2188.9,501.2c-1.2,73.1-68.1,120.2-132.6,94.2c-44.6-18.6-69.4-73.1-54.5-125.1
		c13.6-49.6,58.2-80.5,107.8-71.9C2154.2,405.8,2190.1,451.6,2188.9,501.2z M2053.8,501.2c3.7,13.6,6.2,27.3,12.4,38.4
		c12.4,22.3,40.9,22.3,54.5,1.2c13.6-19.8,13.6-60.7,0-80.5c-14.9-21.1-42.1-22.3-54.5,1.2C2058.8,472.7,2057.6,487.5,2053.8,501.2z
		"/>
	<path class="st3" d="M1943.6,476.4c-3.7-23.5-17.3-31-34.7-32.2c-21.1-1.2-37.2,5-47.1,24.8c-9.9,18.6-11.1,38.4-3.7,58.2
		c9.9,28.5,40.9,38.4,69.4,23.5c7.4-3.7,13.6-9.9,22.3-16.1c8.7,9.9,18.6,22.3,28.5,32.2c-12.4,28.5-73.1,42.1-112.7,31
		c-42.1-12.4-70.6-49.6-70.6-95.4s29.7-88,71.9-100.3c43.4-13.6,90.4,0,112.7,34.7C1967.1,447.9,1956,461.5,1943.6,476.4z"/>
	<path class="st3" d="M815,232.3c0-27.3,19.8-45.8,48.3-45.8c27.3,0,50.8,21.1,50.8,47.1c0,24.8-23.5,47.1-49.6,47.1
		C837.3,280.6,815,258.4,815,232.3z"/>
	<path class="st3" d="M1673.5,530.9c19.8,0,35.9,16.1,34.7,37.2c0,19.8-17.3,35.9-37.2,35.9c-19.8,0-35.9-17.3-35.9-37.2
		C1636.3,545.8,1653.7,529.7,1673.5,530.9z"/>
</g>
<path class="st4" d="M1240.1,261.3h-109v293.5h-27.2V261.3H996.2V239h244V261.3z M1340.4,559.7c-19.8,0-38.4-5-54.5-14.9
	c-16.1-9.9-28.5-23.5-37.2-40.9c-8.7-17.3-13.6-37.2-13.6-59.4v-9.9c0-22.3,5-43.3,13.6-60.7c8.7-17.3,21.1-32.2,37.2-42.1
	c16.1-9.9,32.2-16.1,50.8-16.1c28.5,0,50.8,9.9,68.1,29.7s24.8,45.8,24.8,80.5v14.9h-168.4v5c0,27.2,7.4,49.5,22.3,66.9
	c14.9,17.3,34.7,27.2,58.2,27.2c13.6,0,26-2.5,37.2-7.4c11.1-5,19.8-13.6,29.7-24.8l16.1,12.4
	C1404.8,546.1,1376.3,559.7,1340.4,559.7L1340.4,559.7z M1335.5,338.1c-19.8,0-35.9,7.4-49.5,21.1s-21.1,33.4-24.8,58.2h141.2v-2.5
	c-1.2-22.3-7.4-40.9-19.8-55.7C1371.4,344.3,1355.3,338.1,1335.5,338.1L1335.5,338.1z M1505.1,533.7h152.3v21.1h-184.5V535
	l142.4-192h-138.7v-23.5h170.9v19.8L1505.1,533.7z M1695.9,433.4c0-22.3,5-43.3,13.6-60.7c8.7-18.6,21.1-32.2,37.2-42.1
	s34.7-14.9,54.5-14.9c31,0,57,11.1,75.5,33.4c19.8,22.3,29.7,50.8,29.7,87.9v5c0,22.3-5,43.3-13.6,60.7
	c-8.7,18.6-21.1,32.2-37.2,42.1c-16.1,9.9-34.7,14.9-54.5,14.9c-31,0-57-11.1-75.5-33.4c-19.8-22.3-29.7-50.8-29.7-87.9V433.4z
	 M1721.9,440.9c0,28.5,7.4,50.8,22.3,69.4c14.9,18.6,33.4,27.2,57,27.2c23.5,0,42.1-8.7,57-27.2c14.9-18.6,22.3-42.1,22.3-71.8v-5
	c0-17.3-3.7-34.7-9.9-49.5c-6.2-14.9-16.1-26-28.5-34.7c-12.4-8.7-26-12.4-40.9-12.4c-23.5,0-42.1,8.7-57,27.2
	c-14.9,18.6-22.3,42.1-22.3,71.8V440.9z M2099.6,495.3c0-12.4-5-23.5-16.1-31c-9.9-7.4-26-13.6-47.1-18.6
	c-21.1-5-37.2-9.9-48.3-14.9c-11.1-6.2-19.8-12.4-26-21.1c-5-8.7-8.7-18.6-8.7-29.7c0-18.6,7.4-33.4,23.5-45.8
	c14.9-12.4,35.9-18.6,59.4-18.6c26,0,47.1,6.2,63.2,19.8c16.1,12.4,23.5,29.7,23.5,50.8h-24.8c0-13.6-6.2-24.8-17.3-34.7
	c-11.1-8.7-26-13.6-43.3-13.6c-17.3,0-31,3.7-40.9,11.1c-9.9,7.4-16.1,17.3-16.1,29.7c0,12.4,5,21.1,12.4,27.2
	c8.7,6.2,24.8,12.4,47.1,17.3c22.3,5,39.6,11.1,50.8,17.3c11.1,6.2,19.8,13.6,24.8,22.3c5,8.7,8.7,18.6,8.7,31
	c0,19.8-7.4,35.9-23.5,47.1c-16.1,12.4-37.2,17.3-63.2,17.3c-27.2,0-49.5-6.2-66.9-19.8s-26-29.7-26-50.8h26
	c1.2,14.9,7.4,27.2,19.8,35.9s27.2,12.4,47.1,12.4c18.6,0,32.2-3.7,44.6-12.4C2094.6,517.6,2099.6,507.7,2099.6,495.3L2099.6,495.3z
	 M804.2,573.4c-6.2-111.5-147.4-162.2-161-168.4v-1.2l144.9-146.1v-16.1c0-2.5-2.5-5-5-5H515.6V123.8l-99.1,21.1v13.6h5
	c0,0,24.8,0,24.8,24.8v54.5h-76.8c-1.2,0-2.5,1.2-2.5,2.5v34.7h79.3v187c0,58.2,37.2,99.1,104,94.1c13.6-1.2,27.2-6.2,38.4-13.6
	c5-3.7,7.4-8.7,7.4-14.9V509c-21.1,14.9-39.6,13.6-39.6,13.6c-42.1,0-40.9-53.3-40.9-53.3V274.9h192L568.9,414.8
	c0,18.6,0,32.2,0,33.4c0,0,0,1.2,1.2,1.2c127.6,21.1,161,104,161,127.6c0,0,13.6,116.4-102.8,123.8c0,0-75.5,3.7-89.2-27.2
	c0-1.2,0-2.5,1.2-2.5c12.4-6.2,21.1-17.3,21.1-32.2c0-22.3-13.6-40.9-42.1-40.9c-23.5,0-42.1,18.6-42.1,40.9
	c0,0-11.1,97.8,152.3,95.4C815.3,729.4,804.2,573.4,804.2,573.4z"/>
</svg>
